<svg height="512pt" viewBox="0 -80 512.00104 512" width="512pt" xmlns="http://www.w3.org/2000/svg"><path d="m479.691406 0h-447.382812c-17.84375 0-32.308594 14.464844-32.308594 32.308594v287.5625c0 17.84375 14.464844 32.3125 32.308594 32.3125h447.382812c17.84375 0 32.308594-14.46875 32.308594-32.3125v-287.5625c0-17.84375-14.464844-32.308594-32.308594-32.308594zm0 0" fill="#61b4d8"/><path d="m0 55.148438h512v81.699218h-512zm0 0" fill="#2e5968"/><path d="m432.632812 264.980469c0 24.25-19.660156 43.914062-43.914062 43.914062s-43.914062-19.664062-43.914062-43.914062c0-24.253907 19.660156-43.914063 43.914062-43.914063s43.914062 19.660156 43.914062 43.914063zm0 0" fill="#f7526e"/><path d="m476.546875 264.980469c0 24.25-19.660156 43.914062-43.914063 43.914062-24.253906 0-43.914062-19.664062-43.914062-43.914062 0-24.253907 19.660156-43.914063 43.914062-43.914063 24.253907 0 43.914063 19.660156 43.914063 43.914063zm0 0" fill="#f4d553"/><path d="m410.675781 226.953125c-13.121093 7.59375-21.957031 21.773437-21.957031 38.027344 0 16.25 8.835938 30.429687 21.957031 38.023437 13.121094-7.59375 21.957031-21.773437 21.957031-38.023437 0-16.253907-8.835937-30.433594-21.957031-38.027344zm0 0" fill="#f2a755"/><g fill="#2e5968"><path d="m98.875 189.859375h-57.191406c-4.328125 0-7.835938-3.511719-7.835938-7.839844s3.507813-7.835937 7.835938-7.835937h57.191406c4.328125 0 7.835938 3.507812 7.835938 7.835937s-3.507813 7.839844-7.835938 7.839844zm0 0"/><path d="m275.890625 189.859375h-57.191406c-4.328125 0-7.835938-3.511719-7.835938-7.839844s3.507813-7.835937 7.835938-7.835937h57.191406c4.328125 0 7.835937 3.507812 7.835937 7.835937s-3.507812 7.839844-7.835937 7.839844zm0 0"/><path d="m187.382812 189.859375h-57.191406c-4.328125 0-7.835937-3.511719-7.835937-7.839844s3.507812-7.835937 7.835937-7.835937h57.191406c4.328126 0 7.835938 3.507812 7.835938 7.835937s-3.507812 7.839844-7.835938 7.839844zm0 0"/><path d="m364.398438 189.859375h-57.1875c-4.332032 0-7.839844-3.511719-7.839844-7.839844s3.507812-7.835937 7.839844-7.835937h57.1875c4.328124 0 7.835937 3.507812 7.835937 7.835937s-3.507813 7.839844-7.835937 7.839844zm0 0"/></g><path d="m220.996094 265.195312h-179.3125c-4.328125 0-7.835938-3.511718-7.835938-7.839843s3.507813-7.835938 7.835938-7.835938h179.3125c4.328125 0 7.835937 3.507813 7.835937 7.835938s-3.507812 7.839843-7.835937 7.839843zm0 0" fill="#fff"/><path d="m145.421875 301.957031h-103.738281c-4.328125 0-7.835938-3.507812-7.835938-7.835937s3.507813-7.835938 7.835938-7.835938h103.738281c4.332031 0 7.839844 3.507813 7.839844 7.835938s-3.507813 7.835937-7.839844 7.835937zm0 0" fill="#fff"/></svg>